<?xml version="1.0" encoding="UTF-8"?>
<svg id="Capa_1" xmlns="http://www.w3.org/2000/svg" version="1.1" viewBox="0 0 170.08 170.08">
  <!-- Generator: Adobe Illustrator 30.2.0, SVG Export Plug-In . SVG Version: 2.1.1 Build 26)  -->
  <defs>
    <style>
      .st0 {
        fill: #1d1d1b;
      }

      .st1 {
        fill: #e20613;
      }
    </style>
  </defs>
  <path class="st1" d="M131.35,97.81l.14,2.26s-.01.06-.06.15c-.08.15-.2.39-.12.73-.01.04-.04.1-.07.15-.07.15-.16.34-.17.56,0,.05-.03.16.01.27.1.35-.02.68-.19,1.08-.07.17-.16.41-.05.66.02.05,0,.12-.04.27-.03.12-.08.27-.08.43,0,.01-.02.02-.03.04-.07.09-.19.25-.21.48v.13c-.07.64-.12,1.24-.41,1.76l-.07.12.02.14c.03.23-.08.43-.25.74-.09.16-.18.33-.25.52-.05.14-.07.27-.09.39-.02.13-.03.21-.07.26-.31.44-.43.94-.36,1.49,0,.02,0,.04,0,.06-.21.29-.24.61-.26.86-.01.12-.02.23-.05.32,0,.01,0,.03-.01.04l.85.27s0-.03.01-.04c.05-.14.15-.27.26-.42.15-.19.31-.4.4-.68.05-.17.12-.33.18-.49l.09-.23c.41-1.07.64-1.98.73-2.87,0-.1.02-.21.02-.31.02-.38.04-.63.22-.82.17-.18.17-.39.18-.53.29-1.75.54-3.09.82-4.33.12-.52.07-1.02-.13-1.45l-.98-2.04Z"/>
  <path class="st0" d="M130.79,85.31h.07s0,0,0,0h-.07s0,0,0,0Z"/>
  <g>
    <path class="st1" d="M47.28,72.61c.06-.1.11-.2.15-.3.18-.5.45-.95.74-1.43.08-.13.16-.26.23-.39.36-.61.78-1.19,1.19-1.76.2-.28.41-.57.61-.86.42-.62.82-1.29,1.27-2.11.12-.21.18-.3.26-.32.47-.1.75-.4.97-.68.07-.09.13-.17.2-.26.17-.21.34-.42.49-.69.05-.09.12-.22.18-.25.26-.14.43-.34.58-.52.15-.18.24-.29.38-.33.27-.07.38-.32.46-.51.03-.07.06-.13.07-.15.47-.51.89-.9,1.4-1.14.26-.11.46-.28.64-.42l.98-.79c.68-.55,1.37-1.09,2.04-1.65.52-.43,1.09-.77,1.69-1.14.45-.27.91-.56,1.36-.88.2-.15.45-.25.71-.37.17-.07.34-.15.5-.23.31-.16.62-.34.93-.51.64-.35,1.29-.72,1.97-1,.35-.15.68-.33,1-.52l.2-.13c.32-.21.59-.39.9-.41.19,0,.34-.07.46-.2.16-.18.38-.23.72-.31.12-.03.25-.05.37-.09.28-.08.56-.17.84-.26.48-.15.94-.3,1.4-.4.39-.08.76-.2,1.12-.31.44-.14.85-.27,1.28-.34.22-.04.44-.09.66-.15.3-.07.58-.14.85-.16.51-.04,1.02-.13,1.5-.22.43-.08.84-.15,1.26-.19.36-.03.73-.08,1.09-.12.45-.05.91-.11,1.36-.14.79-.06,1.59-.08,2.34-.1h.45c.65-.03,1.33-.05,1.97,0,.31.02.62.03.93.04.56.02,1.08.03,1.61.12.4.06.81.1,1.2.13.47.04.91.08,1.33.16.08.02.16.04.24.06.15.04.31.08.46.1.15.02.31.04.46.06.75.09,1.47.18,2.12.47.16.07.34.09.49.06.14-.03.3.01.51.07l.15.04c.12.03.23.07.34.1.28.08.56.17.86.23.73.14,1.34.32,1.88.54.16.07.32.11.46.14.11.03.21.05.29.08.27.11.54.17.8.22.4.08.75.15.99.4.18.19.45.23.61.24.27,0,.52.14.81.29.22.12.45.24.71.32.13.04.27.11.42.19.19.1.4.2.64.27.24.07.47.19.71.33.13.07.25.14.38.2l.29.14c.38.18.74.35,1.07.56.27.17.55.32.82.47.29.16.56.3.82.47.2.13.41.22.62.31.26.11.51.22.69.4.38.37.82.63,1.24.88l.13.08c.51.31.99.68,1.46,1.05.16.13.33.25.49.38.59.44,1.15.93,1.63,1.35.18.16.38.27.56.37.28.16.46.27.56.46.1.21.29.36.5.42.11.03.23.03.35,0,0,.12.03.25.1.38l.02.05c.05.13.14.36.38.45.12.05.2.15.33.33.07.09.14.19.22.27.19.21.38.41.57.61.44.46.86.9,1.19,1.4.17.26.37.46.57.66.14.14.27.27.38.41.07.09.14.19.2.29.26.38.54.81,1.07,1.04,0,.01.02.04.04.08.08.23.2.36.32.43.01.1.03.19.09.29l.03.04c.05.09.12.2.22.29.18.18.3.39.34.63.03.15.11.3.22.43.52.6.95,1.32,1.36,2.25.03.07.06.14.11.22h1.86c-.18-.4-.38-.78-.6-1.11v-.11s-.05.04-.05.04c-.07-.11-.15-.21-.23-.31-.22-.29-.41-.59-.61-.91-.12-.2-.25-.4-.38-.59-.26-.39-.56-.75-.84-1.11-.12-.15-.24-.29-.34-.43-.07-.09-.15-.14-.22-.18-.02-.08-.04-.17-.1-.24-.08-.13-.14-.26-.21-.39-.15-.3-.31-.63-.61-.92-.18-.18-.34-.4-.5-.64-.19-.27-.38-.55-.63-.79-.14-.48-.46-.84-.76-1.13-.09-.09-.18-.2-.27-.33-.17-.23-.36-.49-.67-.66-.31-.17-.58-.42-.87-.79-.06-.07-.12-.14-.18-.19-.19-.17-.39-.26-.57-.33l-.06-.02c-.07-.02-.18-.04-.3-.03.06-.22.01-.42-.04-.55-.26-.68-.69-1.22-1.33-1.66h0c-.09-.06-.19-.12-.28-.18-.26-.17-.51-.33-.67-.52-.38-.47-.85-.78-1.31-1.07-.18-.11-.35-.23-.52-.35-.3-.22-.6-.45-.9-.68-.27-.21-.54-.42-.82-.62l-.11-.08c-.61-.45-1.25-.91-1.99-1.22-.27-.11-.43-.2-.55-.35-.17-.23-.41-.35-.63-.46l-.28-.14c-.4-.19-.77-.38-1.11-.6-.81-.53-1.71-1-2.75-1.45-.41-.18-.83-.34-1.25-.51-.55-.22-1.12-.44-1.66-.69l-.13-.06c-.2-.09-.41-.19-.64-.27-.42-.14-.83-.28-1.25-.41-.39-.13-.77-.25-1.16-.38-1.62-.54-3.41-.94-5.45-1.24-.63-.09-1.24-.19-1.83-.32l-.15-.04c-.23-.05-.48-.12-.75-.12-.52,0-1.06-.04-1.59-.07-.75-.05-1.52-.11-2.3-.05-.02,0-.07,0-.14-.03-.3-.1-.58-.06-.8-.02-.21.04-.44.04-.69.05h-.22c-.14,0-.27.01-.41.02-.36.02-.7.04-1-.05-.18-.06-.33,0-.43.03-.25.02-.5.07-.73.12-.38.08-.73.15-1.07.11-.66-.08-1.26.04-1.85.15-.19.04-.38.07-.57.1l-.32.05c-.65.09-1.32.19-1.97.53-.42-.03-.78.09-1.09.2-.11.04-.22.08-.34.11-.06.02-.12.04-.17.07-.01,0-.02,0-.03.01-.61,0-1.15.16-1.68.31-.38.11-.74.22-1.1.26-.21.02-.38.13-.54.24-.21.14-.42.22-.65.23-.47.02-.97.16-1.39.4-.29.16-.58.27-.82.35-.1.03-.2.06-.3.09-.27.08-.54.16-.81.3-.1.06-.21.12-.31.17-.46.26-.85.49-1.32.5-.19,0-.33.09-.43.15l-.04.03c-.16.08-.32.18-.48.28-.24.15-.46.29-.71.37-.51.18-.96.39-1.32.61-.11.06-.22.12-.33.18-.38.21-.82.44-1.12.87h-.05c-.41.11-.69.34-.93.55l-.09.07c-.07.06-.2.09-.34.14-.17.05-.37.11-.56.22-.32.19-.61.41-.89.62-.35.26-.68.5-1.04.69-.39.2-.68.49-.95.76-.12.12-.24.24-.37.35-.89.77-1.6,1.41-2.24,2.01l-.04.03c-.07.07-.18.16-.26.29-.07.12-.1.24-.11.34-.11-.02-.25-.01-.39.06-.08.04-.17.08-.26.12-.24.1-.54.23-.77.5-.15.17-.32.32-.5.48-.33.3-.68.61-.92,1.05-.01.02-.05.07-.15.14-.53.35-.88.82-1.22,1.27-.27.35-.52.69-.83.94-.12.09-.2.22-.26.41-.03.1-.12.2-.23.31l.33.3s0,0,0,0l-.38-.25c-.35.37-.71.76-.92,1.3-.16.41-.35.82-.68,1.05-.53.37-.79.89-1.03,1.35l-.1.2c-.07.13-.14.25-.21.38l-.12.21c-.17.31-.37.6-.58.92-.33.5-.67,1.02-.91,1.61h3.59Z"/>
    <path class="st1" d="M50.2,122.36c-.09-.16-.19-.35-.34-.5-.16-.17-.3-.36-.46-.57-.14-.19-.28-.38-.44-.56,0-.01-.03-.05-.04-.09-.02-.04-.03-.08-.04-.1-.04-.08-.05-.2-.07-.32-.03-.2-.06-.43-.19-.65-.25-.41-.52-.81-.79-1.2l-.24-.35c-.06-.08-.11-.16-.17-.24-.23-.33-.45-.63-.57-.97-.1-.29-.22-.56-.34-.82-.09-.21-.19-.42-.27-.63-.07-.19-.16-.36-.24-.52-.1-.19-.19-.37-.24-.54-.1-.4-.27-.75-.44-1.08l-.08-.16c-.03-.07-.07-.14-.11-.21-.16-.32-.31-.61-.29-.9.03-.49-.11-.91-.44-1.32-.17-.2-.25-.4-.26-.58,0-.38-.12-.73-.33-1.07-.09-.15-.15-.31-.16-.48-.03-.42-.13-.78-.31-1.09-.04-.07-.05-.17-.06-.29v-.06c-.02-.12-.03-.24-.04-.36-.05-.55-.1-1.12-.4-1.67v-.05c-.07-.25-.13-.5-.19-.75-.1-.4-.19-.79-.28-1.18-.04-.17-.09-.34-.13-.51-.1-.34-.19-.66-.18-.97,0-.21-.06-.38-.11-.52l-.04-.1c-.27-.76-.35-1.58-.39-2.36,0-.16-.02-.32-.03-.48h-3.92c0,.07.02.14.03.21-.24.46-.18.92-.13,1.31l.08.56c.18,1.28.36,2.6.42,3.91.01.23.06.44.13.6.1.24.13.51.18.8.05.38.11.8.32,1.21v.04c-.04.66.16,1.26.37,1.81.1.26.17.54.24.84.12.48.24.98.53,1.48v.07c.15,1.29.72,2.24,1.7,2.84.16.37.51.56.8.61.18.03.25.12.42.43l.02.04c.19.34.36.65.43.99.03.16.09.43.34.6.2.14.33.36.47.61.06.1.12.21.18.3.13.2.28.46.56.65.11.07.2.21.28.44.27.69.68,1.37,1.28,2.11.03.04.07.08.1.12,0,0,.02.02.02.03.16.52.57.84.86,1.07.11.09.17.17.21.28.28.92,1.26,1.63,2.22,1.62.05,0,.11,0,.16,0,.27-.03.5-.19.61-.42.1-.21.07-.46-.07-.65-.06-.08-.1-.16-.15-.25Z"/>
  </g>
  <path class="st0" d="M48.33,85.84l.19,3.59c-.31.52-.73.98-1.25,1.4-.52.42-1.17.76-1.94,1.01-.78.26-1.69.39-2.75.39-1.72-.01-3.22-.32-4.51-.93-1.29-.61-2.29-1.47-2.99-2.6-.7-1.13-1.06-2.49-1.06-4.1s.35-2.91,1.04-4.04c.69-1.14,1.68-2.01,2.97-2.62,1.29-.61,2.83-.92,4.62-.92,1.13,0,2.14.11,3.03.33.89.22,1.65.49,2.25.82l.02,3.57h-.19c-.38-1.38-1-2.36-1.86-2.96-.86-.59-1.87-.89-3.02-.89s-2.09.27-2.9.82-1.42,1.31-1.86,2.3c-.44.99-.66,2.17-.66,3.55s.21,2.57.62,3.57c.42,1,1.01,1.78,1.78,2.34.77.56,1.67.85,2.72.88,1.08,0,2-.17,2.75-.52.75-.35,1.35-.93,1.81-1.73.46-.81.8-1.89,1.03-3.26h.17Z"/>
  <path class="st0" d="M51.35,77.02v1.28h-.06c0-.31-.11-.57-.33-.77-.22-.2-.48-.3-.79-.3h-.34v-.21h1.52ZM54.46,77.02v9.38c0,1.01.17,1.88.5,2.62.33.74.8,1.31,1.42,1.7.61.4,1.34.6,2.19.6s1.6-.19,2.23-.57c.63-.38,1.11-.91,1.45-1.61s.51-1.52.51-2.47v-9.65h1.52v9.52c0,1.16-.24,2.17-.73,3.03-.49.85-1.18,1.51-2.09,1.97-.91.46-2.01.69-3.29.69-1.49,0-2.76-.23-3.78-.69s-1.8-1.12-2.31-1.96c-.51-.85-.77-1.85-.77-3.01v-9.55h3.17ZM55.92,77.02v.21h-.34c-.31,0-.57.1-.79.3-.22.2-.33.46-.33.77h-.04v-1.28h1.5ZM62.81,77.02v1.28h-.06c0-.31-.11-.57-.33-.77-.22-.2-.48-.3-.79-.3h-.34v-.21h1.52ZM65.73,77.02v.21h-.34c-.31,0-.57.1-.79.3-.22.2-.33.46-.33.77h-.04v-1.28h1.5Z"/>
  <path class="st0" d="M83.8,90.7c-.11.28-.13.52-.06.72.07.2.19.35.36.45.17.11.34.16.51.16h.19v.21h-4.52v-.21h.19c.32,0,.66-.1,1-.31.34-.2.63-.55.86-1.03h1.48ZM88.35,77.02l.08,2.58-5.24,12.58h-1.54l5.48-12.39c.04-.08.12-.24.22-.48.11-.23.22-.5.34-.79s.23-.58.33-.86c.1-.27.15-.49.15-.64h.19ZM90.57,87.21v.89h-6.22v-.89h6.22ZM88.35,77.02l6.91,15.09h-3.81l-4.4-11.01,1.29-4.08ZM90.89,90.7h3.7c.24.48.53.82.87,1.03.34.2.67.31.99.31h.17v.21h-6.72v-.21h.19c.28,0,.53-.12.74-.35.21-.23.23-.56.06-.98Z"/>
  <path class="st0" d="M109.98,77.02c.14.06.36.11.64.17.29.06.61.11.96.15.35.04.68.06.97.06l-2.58.23v-.61ZM123.51,77.4v.89h-13.53v-.89h13.53ZM112.32,78.22v.06c-.65.01-1.17.21-1.55.6-.39.39-.58.91-.58,1.57v.23l-.21.02v-2.49h2.35ZM115.22,90.67v1.54h-1.69v-.21h.27c.37,0,.68-.13.94-.39.26-.26.4-.57.41-.94h.06ZM118.33,77.48v14.74h-3.17v-14.74h3.17ZM118.26,90.67h.06c.01.37.15.68.41.94s.57.39.94.39h.27v.21h-1.69v-1.54ZM123.51,77.02v.61l-2.58-.23c.31,0,.64-.02.98-.06.34-.04.67-.09.96-.15.3-.06.51-.11.63-.17ZM123.51,78.22v2.49l-.21-.02v-.23c0-.66-.19-1.19-.58-1.57-.39-.39-.91-.59-1.57-.6v-.06h2.37Z"/>
  <path class="st0" d="M125.83,78.94h-.06c-.01-.37-.15-.68-.41-.94-.26-.26-.57-.39-.94-.39h-.27v-.21h1.69v1.54ZM125.83,90.65v1.54h-1.69v-.21h.27c.37,0,.68-.13.94-.39.26-.26.4-.57.41-.94h.06ZM128.94,77.4v14.8h-3.17v-14.8h3.17ZM134.77,77.4v.91h-5.9v-.91h5.9ZM133.74,84.46v.89h-4.86v-.89h4.86ZM134.52,91.29l.51.91h-6.15v-.91h5.64ZM136.06,87.86l-.97,4.33h-4.14l.76-.91c.7,0,1.32-.14,1.86-.41.54-.28.99-.67,1.37-1.18.38-.51.68-1.12.91-1.83h.21ZM133.74,82.47v2.03h-2.01v-.04c.52-.01.95-.19,1.29-.54.34-.35.51-.78.51-1.3v-.15h.21ZM133.74,85.31v2.03h-.21v-.17c0-.52-.17-.95-.51-1.29s-.77-.51-1.29-.53v-.04h2.01ZM134.77,77.02v.61l-2.58-.23c.31,0,.64-.02.98-.06s.67-.09.96-.15c.3-.06.51-.11.63-.17ZM134.77,78.24v2.47h-.21v-.25c0-.65-.19-1.17-.58-1.56-.39-.39-.91-.6-1.57-.61v-.04h2.37Z"/>
  <g>
    <path class="st0" d="M87.85,93.37c-.04-.13-.17-.21-.31-.18-.32.07-.68.12-1.07.17-.93.11-2.06.09-3.23-.1-.69-.11-1.38-.31-2.07-.59-.69-.28-1.36-.66-2.01-1.13-.64-.47-1.26-1.07-1.83-1.78-.3-.38-.6-.74-.89-1.05-.29-.32-.62-.61-.97-.86-.35-.25-.75-.46-1.18-.62-.04-.01-.08-.03-.11-.04.68-.18,1.27-.45,1.79-.79.83-.56,1.46-1.24,1.85-2,.4-.77.57-1.6.52-2.47-.05-.87-.34-1.68-.85-2.41-.51-.72-1.25-1.33-2.19-1.8-.94-.47-2.12-.7-3.49-.7h-5.33c-.14,0-.26.11-.27.25,0,.14.1.26.24.28.27.03.52.07.74.12.19.05.35.12.48.23.12.11.22.26.3.47.08.21.12.52.12.91v10.71c0,.39-.04.7-.12.91-.08.2-.18.36-.3.47-.13.11-.28.19-.48.23-.22.05-.47.09-.74.12-.14.01-.25.14-.24.28,0,.14.12.25.27.25h5.76c.14,0,.26-.11.27-.25,0-.14-.1-.26-.24-.28-.26-.03-.5-.07-.72-.12-.19-.04-.36-.12-.49-.23-.13-.11-.23-.26-.31-.46-.08-.21-.12-.52-.12-.91v-2.47h1.19c.44,0,.87.24,1.29.71.46.52,1.02,1.24,1.64,2.15.52.75,1.13,1.38,1.82,1.88.68.5,1.43.9,2.2,1.19.77.29,1.59.5,2.42.63.83.12,1.66.19,2.47.19.75,0,1.46-.04,2.14-.13.67-.08,1.31-.19,1.88-.33.07-.02.13-.06.17-.13.04-.06.04-.14.02-.21l-.03-.08ZM70.64,79.19c0-.36.02-.65.07-.85.04-.18.1-.32.18-.4.07-.08.16-.13.29-.15.17-.03.37-.05.6-.05h.05c.87,0,1.61.22,2.2.65.59.44,1.04,1,1.33,1.67.29.67.44,1.42.44,2.21s-.15,1.53-.45,2.21c-.3.67-.75,1.23-1.33,1.67-.58.43-1.31.65-2.18.65h-1.19v-7.6Z"/>
    <path class="st0" d="M118.75,93.45l-.03-.08c-.04-.13-.17-.21-.31-.18-.32.07-.68.12-1.07.17-.93.11-2.06.09-3.23-.1-.69-.11-1.38-.31-2.07-.59-.69-.28-1.36-.66-2.01-1.13-.64-.47-1.26-1.07-1.83-1.78-.3-.38-.6-.74-.89-1.05-.29-.32-.62-.61-.97-.86-.35-.25-.75-.46-1.18-.62-.04-.01-.08-.03-.11-.04.68-.18,1.27-.45,1.79-.79.83-.56,1.46-1.24,1.85-2,.4-.77.57-1.6.52-2.47-.05-.87-.34-1.68-.85-2.41-.51-.72-1.24-1.33-2.19-1.8-.94-.47-2.12-.7-3.49-.7h-5.33c-.14,0-.26.11-.27.25,0,.14.1.26.24.28.27.03.52.07.74.12.19.04.35.12.48.23.12.11.22.26.3.47.08.21.12.52.12.91v10.65c0,.39-.04.7-.12.91-.08.2-.18.36-.3.47-.13.11-.29.19-.48.23-.22.05-.47.09-.74.12-.14.01-.25.14-.24.28,0,.14.12.25.27.25h5.76c.14,0,.26-.11.27-.25,0-.14-.1-.26-.24-.28-.26-.03-.5-.07-.72-.12-.19-.04-.36-.12-.49-.23-.13-.11-.23-.26-.31-.46-.08-.21-.12-.52-.12-.91v-2.42h1.19c.44,0,.87.24,1.29.71.46.52,1.02,1.24,1.64,2.15.52.75,1.13,1.38,1.81,1.88.68.5,1.43.9,2.2,1.19.77.29,1.59.5,2.42.63.83.12,1.66.19,2.47.19.75,0,1.46-.04,2.14-.13.67-.08,1.31-.19,1.88-.33.07-.02.13-.06.17-.13.04-.06.04-.14.02-.21ZM101.5,79.19c0-.36.02-.65.07-.85.04-.18.1-.32.18-.4.07-.08.16-.13.29-.15.17-.03.37-.05.6-.05h.05c.87,0,1.61.22,2.2.65.59.44,1.04,1,1.33,1.67.29.67.44,1.42.44,2.21s-.15,1.53-.45,2.21c-.3.67-.75,1.23-1.33,1.67-.58.43-1.31.65-2.18.65h-1.19v-7.6Z"/>
  </g>
  <g>
    <path class="st0" d="M50.79,101.2c-.07.23-.2.41-.38.53-.18.12-.4.19-.65.19-.32,0-.59-.11-.81-.34-.22-.22-.33-.5-.33-.83s.11-.61.33-.83c.22-.22.49-.34.81-.34.25,0,.47.06.65.19.18.13.31.3.38.53l.02.05.45-.13-.02-.06c-.1-.31-.28-.56-.55-.75-.27-.19-.58-.28-.93-.28-.45,0-.83.16-1.14.47-.31.31-.47.69-.47,1.14s.16.83.47,1.14c.31.31.69.47,1.14.47.36,0,.67-.1.93-.28.27-.19.45-.45.54-.77l.02-.06-.45-.11-.02.05Z"/>
    <polygon class="st0" points="54.25 100.53 52.57 100.53 52.57 99.21 52.1 99.21 52.1 102.31 52.57 102.31 52.57 100.96 54.25 100.96 54.25 102.31 54.72 102.31 54.72 99.21 54.25 99.21 54.25 100.53"/>
    <path class="st0" d="M56.73,99.21l-1.39,3.1h.5l.33-.76h1.5l.33.76h.5l-1.39-3.1h-.4ZM57.49,101.12h-1.12l.56-1.28.56,1.28Z"/>
    <path class="st0" d="M61.33,100.78c.19-.17.29-.39.29-.66s-.1-.49-.29-.66c-.19-.16-.44-.25-.74-.25h-1.44v3.1h.47v-1.28h.47l1.12,1.26.02.02h.59l-1.16-1.28c.27-.01.5-.1.67-.25ZM59.61,99.64h.97c.17,0,.31.04.42.13.1.09.15.2.15.34s-.05.26-.15.34c-.1.09-.24.13-.42.13h-.97v-.96Z"/>
    <path class="st0" d="M64.92,101.2c-.07.23-.2.41-.38.53-.18.12-.4.19-.65.19-.32,0-.59-.11-.81-.34-.22-.22-.33-.5-.33-.83s.11-.61.33-.83c.22-.22.49-.34.81-.34.25,0,.47.06.65.19.18.13.31.3.38.53l.02.05.45-.13-.02-.06c-.1-.31-.28-.56-.55-.75-.27-.19-.58-.28-.93-.28-.45,0-.83.16-1.14.47-.31.31-.47.69-.47,1.14s.16.83.47,1.14c.31.31.69.47,1.14.47.36,0,.67-.1.93-.28.27-.19.45-.45.54-.77l.02-.06-.45-.11-.02.05Z"/>
    <path class="st0" d="M68.34,100.95c0,.29-.08.53-.23.71-.15.18-.35.26-.6.26s-.46-.09-.62-.26c-.15-.18-.23-.41-.23-.71v-1.74h-.47v1.74c0,.42.12.77.36,1.03.24.26.56.39.95.39s.71-.13.95-.4c.24-.26.36-.61.36-1.03v-1.74h-.47v1.74Z"/>
    <polygon class="st0" points="69.5 99.64 70.61 99.64 70.61 102.31 71.08 102.31 71.08 99.64 72.19 99.64 72.19 99.21 69.5 99.21 69.5 99.64"/>
    <polygon class="st0" points="73.38 100.97 75.07 100.97 75.07 100.54 73.38 100.54 73.38 99.64 75.2 99.64 75.2 99.21 72.91 99.21 72.91 102.31 75.21 102.31 75.21 101.88 73.38 101.88 73.38 100.97"/>
    <path class="st0" d="M78.27,100.78c.19-.17.29-.39.29-.66s-.1-.49-.29-.66c-.19-.16-.44-.25-.74-.25h-1.44v3.1h.47v-1.28h.47l1.12,1.26.02.02h.59l-1.16-1.28c.27-.01.5-.1.67-.25ZM76.56,99.64h.97c.17,0,.31.04.42.13.1.09.15.2.15.34s-.05.26-.15.34c-.1.09-.24.13-.42.13h-.97v-.96Z"/>
    <rect class="st0" x="79.41" y="99.21" width=".47" height="3.1"/>
    <polygon class="st0" points="81.35 100.97 83.04 100.97 83.04 100.54 81.35 100.54 81.35 99.64 83.17 99.64 83.17 99.21 80.88 99.21 80.88 102.31 83.18 102.31 83.18 101.88 81.35 101.88 81.35 100.97"/>
    <rect class="st0" x="85.39" y="100.91" width="1.55" height=".41"/>
    <polygon class="st0" points="92.01 101.52 91.29 99.21 90.86 99.21 90.14 101.52 89.45 99.25 89.44 99.21 88.95 99.21 89.9 102.27 89.91 102.31 90.36 102.31 91.08 100.02 91.79 102.31 92.25 102.31 93.2 99.21 92.71 99.21 92.01 101.52"/>
    <rect class="st0" x="93.87" y="99.21" width=".47" height="3.1"/>
    <polygon class="st0" points="97.6 101.5 95.75 99.23 95.73 99.21 95.34 99.21 95.34 102.31 95.81 102.31 95.81 100.04 97.66 102.29 97.68 102.31 98.06 102.31 98.06 99.21 97.6 99.21 97.6 101.5"/>
    <polygon class="st0" points="99.53 100.97 101.23 100.97 101.23 100.54 99.53 100.54 99.53 99.64 101.36 99.64 101.36 99.21 99.07 99.21 99.07 102.31 101.36 102.31 101.36 101.88 99.53 101.88 99.53 100.97"/>
    <path class="st0" d="M106.12,100.93v-.25h-.42v.25c0,.16-.02.31-.07.44l-.65-.54c-.24-.19-.4-.35-.49-.47-.09-.11-.13-.23-.13-.36,0-.14.04-.24.13-.32.09-.08.2-.12.34-.12s.25.04.34.12c.09.08.14.21.16.38v.06s.44-.08.44-.08v-.05c-.04-.26-.14-.46-.3-.61s-.38-.22-.63-.22-.49.08-.66.23c-.17.16-.26.36-.26.61,0,.21.07.41.22.6-.15.08-.28.19-.38.32-.11.15-.17.32-.17.51,0,.28.11.52.32.69.21.17.49.26.84.26.39,0,.71-.13.97-.38l.51.43.27-.32-.54-.45c.1-.21.15-.45.15-.72ZM104.76,101.96c-.22,0-.4-.05-.53-.15-.13-.1-.19-.23-.19-.39,0-.12.03-.22.1-.32.07-.09.16-.16.27-.22l.98.83c-.18.16-.38.24-.64.24Z"/>
    <path class="st0" d="M110.13,99.59c.25,0,.47.06.65.19.18.13.31.3.38.53l.02.05.45-.13-.02-.06c-.1-.31-.28-.56-.55-.75-.27-.19-.58-.28-.93-.28-.45,0-.83.16-1.14.47-.31.31-.47.69-.47,1.14s.16.83.47,1.14c.31.31.69.47,1.14.47.36,0,.67-.1.93-.28.26-.19.45-.45.54-.77l.02-.06-.45-.11-.02.05c-.07.23-.2.41-.38.53-.18.12-.4.19-.65.19-.32,0-.59-.11-.81-.34-.22-.22-.33-.5-.33-.83s.11-.61.33-.83c.22-.22.49-.34.81-.34Z"/>
    <path class="st0" d="M113.93,99.15c-.45,0-.83.16-1.14.47-.31.31-.46.69-.46,1.14s.16.83.46,1.14c.31.31.69.47,1.14.47s.83-.16,1.13-.47c.31-.31.46-.69.46-1.14s-.16-.83-.46-1.14c-.31-.31-.69-.47-1.13-.47ZM113.93,101.92c-.32,0-.59-.11-.81-.33-.22-.22-.33-.5-.33-.83s.11-.6.33-.83c.22-.22.49-.34.81-.34s.58.11.8.34c.22.22.33.5.33.83s-.11.61-.33.83c-.22.22-.49.33-.8.33Z"/>
    <polygon class="st0" points="116.39 102.31 116.85 102.31 116.85 101 118.48 101 118.48 100.57 116.85 100.57 116.85 99.64 118.64 99.64 118.64 99.21 116.39 99.21 116.39 102.31"/>
    <polygon class="st0" points="119.35 102.31 119.82 102.31 119.82 101 121.45 101 121.45 100.57 119.82 100.57 119.82 99.64 121.61 99.64 121.61 99.21 119.35 99.21 119.35 102.31"/>
    <polygon class="st0" points="122.79 101.88 122.79 100.97 124.48 100.97 124.48 100.54 122.79 100.54 122.79 99.64 124.61 99.64 124.61 99.21 122.32 99.21 122.32 102.31 124.61 102.31 124.61 101.88 122.79 101.88"/>
  </g>
</svg>